<svg width="48" height="40" fill="none" xmlns="http://www.w3.org/2000/svg"><path fill-rule="evenodd" clip-rule="evenodd" d="M34.024 33.416l-8.636-2.14-7.962 7.742a3.449 3.449 0 01-2.418.982A3.005 3.005 0 0112 36.996v-9.038L3.74 10H1c-.622 0-1-.52-1-1 0-.478.378-1 1-1h4.05l8.388 18.264 20.76 5.138a7 7 0 016.808-5.39A6.997 6.997 0 0148 33.006 6.997 6.997 0 0141.006 40a6.997 6.997 0 01-6.982-6.584zM14 28.454v8.542c0 .96 1.224 1.376 2.034.588l7.068-6.874L14 28.454zm27.006 2.052a2.5 2.5 0 010 5 2.5 2.5 0 010-5zM44 12.006L9.034 12l4.908 10.734a3.99 3.99 0 002.712 2.228l13.186 3.142a3.997 3.997 0 004.224-1.628L44 12.006zM24 10H14V6h10v4zm12 0H26V6h10v4zm-6-6H20V0h10v4z" fill="#2B75E7"/></svg>