<svg width="48" height="44" fill="none" xmlns="http://www.w3.org/2000/svg"><path fill-rule="evenodd" clip-rule="evenodd" d="M0 10h22l2-6h14v2H28l-6 20H4L0 10zm7.99 4H6l2.072 8h2.114L7.99 14zm8.372 0h-1.99l2.072 8h2.114l-2.196-8zm-4.186 0h-1.99l2.072 8h2.114l-2.196-8zM13.142.418c.396-.27.886-.418 1.384-.418.744 0 1.508.334 2 1.106C18.228 3.78 20.94 8 20.94 8H2S9.412 2.952 13.142.418zM22 36v.052A8.004 8.004 0 0114 44a8.003 8.003 0 01-6.928-12H4v-4h19.84L30 8h8.558c.862 0 1.626.55 1.898 1.368L44 20l2.674 1.336A2.403 2.403 0 0148 23.482V32c0 1.106-.894 2-2 2h-2.252A8.003 8.003 0 0136 44c-4.416 0-8-3.584-8-8h-6zm-8-3a3.001 3.001 0 010 6 3.001 3.001 0 010-6zm22 0a3.001 3.001 0 010 6 3.001 3.001 0 010-6zm1.98-21H32v6h7.778l-1.798-6z" fill="#EF645D"/></svg>