<svg width="139" height="30" fill="none" xmlns="http://www.w3.org/2000/svg"><path d="M15.72 29.48c-2.853 0-5.44-.613-7.76-1.84-2.293-1.253-4.107-2.973-5.44-5.16C1.213 20.267.56 17.773.56 15c0-2.773.653-5.253 1.96-7.44A13.872 13.872 0 017.96 2.4c2.32-1.253 4.92-1.88 7.8-1.88 2.427 0 4.613.427 6.56 1.28 1.973.853 3.627 2.08 4.96 3.68l-4.16 3.84c-1.893-2.187-4.24-3.28-7.04-3.28-1.733 0-3.28.387-4.64 1.16a8.103 8.103 0 00-3.2 3.16c-.747 1.36-1.12 2.907-1.12 4.64 0 1.733.373 3.28 1.12 4.64a8.383 8.383 0 003.2 3.2c1.36.747 2.907 1.12 4.64 1.12 2.8 0 5.147-1.107 7.04-3.32l4.16 3.84c-1.333 1.627-2.987 2.867-4.96 3.72-1.973.853-4.173 1.28-6.6 1.28zM57.336 1v28h-5.32l-13.96-17v17h-6.4V1h5.36l13.92 17V1h6.4zM73.16 29.48c-2.214 0-4.36-.293-6.44-.88-2.054-.613-3.707-1.4-4.96-2.36l2.2-4.88c1.2.88 2.626 1.587 4.28 2.12 1.653.533 3.306.8 4.96.8 1.84 0 3.2-.267 4.08-.8.88-.56 1.32-1.293 1.32-2.2 0-.667-.267-1.213-.8-1.64-.507-.453-1.174-.813-2-1.08-.8-.267-1.894-.56-3.28-.88-2.134-.507-3.88-1.013-5.24-1.52a8.665 8.665 0 01-3.52-2.44c-.96-1.12-1.44-2.613-1.44-4.48 0-1.627.44-3.093 1.32-4.4.88-1.333 2.2-2.387 3.96-3.16C69.387.907 71.56.52 74.12.52c1.786 0 3.533.213 5.24.64 1.706.427 3.2 1.04 4.48 1.84l-2 4.92c-2.587-1.467-5.174-2.2-7.76-2.2-1.814 0-3.16.293-4.04.88-.854.587-1.28 1.36-1.28 2.32 0 .96.493 1.68 1.48 2.16 1.013.453 2.546.907 4.6 1.36 2.133.507 3.88 1.013 5.24 1.52a8.523 8.523 0 013.48 2.4c.986 1.093 1.48 2.573 1.48 4.44 0 1.6-.454 3.067-1.36 4.4-.88 1.307-2.214 2.347-4 3.12-1.787.773-3.96 1.16-6.52 1.16zm21.717-23.2h-8.96V1h24.4v5.28h-8.96V29h-6.48V6.28zM131.644 29l-5.4-7.8h-5.96V29h-6.48V1h12.12c2.48 0 4.627.413 6.44 1.24 1.84.827 3.254 2 4.24 3.52.987 1.52 1.48 3.32 1.48 5.4 0 2.08-.506 3.88-1.52 5.4-.986 1.493-2.4 2.64-4.24 3.44l6.28 9h-6.96zm-.12-17.84c0-1.573-.506-2.773-1.52-3.6-1.013-.853-2.493-1.28-4.44-1.28h-5.28v9.76h5.28c1.947 0 3.427-.427 4.44-1.28 1.014-.853 1.52-2.053 1.52-3.6z" fill="#fff"/></svg>