<svg width="33" height="36" fill="none" xmlns="http://www.w3.org/2000/svg"><path fill-rule="evenodd" clip-rule="evenodd" d="M1.767 16.518H0v-3.31c.702 0 1.161-.711 1.416-1.495.88-2.702 2.385-6.763 6.084-9.31v5.123a1.5 1.5 0 003 0V.876C11.802.415 13.291.104 15 0v4.529a1.5 1.5 0 003 0V.033c1.701.14 3.192.49 4.5.99v6.503a1.5 1.5 0 003 0V2.627c3.587 2.548 5.195 6.45 6.085 9.086.263.78.713 1.494 1.415 1.494v3.31h-1.768c.862.689 1.768 2.039 1.768 4.693 0 2.443-1.356 5.524-4.316 6.79-3.229 5.163-7.54 8-12.184 8-4.644 0-8.955-2.837-12.186-8C1.354 26.734 0 23.653 0 21.21c0-2.654.904-4.004 1.767-4.692zM19.8 27.696h-6.6c.006.018.939 2.608 3.3 2.608 2.451 0 3.294-2.59 3.3-2.608zm6.776-11.178H6.423l-.02.772a1.376 1.376 0 01-1.931 1.265 1.037 1.037 0 00-.926.073c-1.375.9-1.228 5.79 2.138 6.937 1.373.47 3.545 4.65 5.894.596.814-1.4 3.377-1.557 4.922-.445 1.544-1.112 4.108-.954 4.92.445 2.349 4.054 4.521-.127 5.895-.596 3.366-1.146 3.513-6.036 2.137-6.937-.322-.21-.73-.159-.924-.073-.909.406-1.933-.264-1.933-1.265l-.02-.772zM12.03 18.01c-.95 0-1.719.93-1.719 2.076 0 1.147.769 2.076 1.72 2.076.947 0 1.719-.93 1.719-2.076s-.771-2.075-1.72-2.075zm10.656 2.076c0 1.147-.769 2.076-1.719 2.076-.949 0-1.718-.93-1.718-2.076s.769-2.075 1.718-2.075c.95 0 1.72.929 1.72 2.075z" fill="#2B75E7"/></svg>