<svg width="36" height="36" fill="none" xmlns="http://www.w3.org/2000/svg"><path fill-rule="evenodd" clip-rule="evenodd" d="M25.496 36H4.5a4.504 4.504 0 01-.03-9.005h21.027a4.504 4.504 0 010 9.005zm0-6.003a1.5 1.5 0 10.002 3.001 1.5 1.5 0 00-.002-3.001zm-14.132 0a1.5 1.5 0 100 3 1.5 1.5 0 000-3zm-6.865 0a1.5 1.5 0 10.003 3.001 1.5 1.5 0 00-.003-3.001zm14.065 0c-.828 0-1.501.672-1.501 1.5a1.5 1.5 0 101.501-1.5zm6.469-4.503H1.5c-.932 0-1.5-.785-1.5-1.501v-7.504c0-.932.784-1.501 1.5-1.501h8.998v-4.503c0-.83.67-1.5 1.5-1.5h4.989C17.933 7.741 21.8 2.66 23.419.578a1.496 1.496 0 011.854-.421l10.063 5.05c.414.206.663.626.663 1.073 0 .155.08-.016-1.402 5.369.34.923.77 2.111 1.117 3.123a4.79 4.79 0 01.28 1.538c0 2.262-2.301 3.505-4.09 3.101-2.316-.523-5.397-1.365-5.397-1.365l5.536-5.85.376-4.714-6.923-2.227-2.395 5.948 3.378 12.394a1.5 1.5 0 01-1.446 1.896zM3 22.492h5.999v-1.5h-6v1.5zm0-3.002h5.999v-1.5h-6v1.5zm17.22-7.504h-6.722v6.003h8.29l-1.568-6.003z" fill="#F49D44"/></svg>